<?xml version="1.0" encoding="UTF-8" standalone="no"?>
<!DOCTYPE svg PUBLIC "-//W3C//DTD SVG 1.1//EN" "http://www.w3.org/Graphics/SVG/1.1/DTD/svg11.dtd">
<svg width="100%" height="100%" viewBox="0 0 3508 2481" version="1.1" xmlns="http://www.w3.org/2000/svg" xmlns:xlink="http://www.w3.org/1999/xlink" xml:space="preserve" xmlns:serif="http://www.serif.com/" style="fill-rule:evenodd;clip-rule:evenodd;stroke-linecap:round;stroke-linejoin:round;stroke-miterlimit:1.5;">
    <g transform="matrix(1,0,0,1,2783.230517,0)">
        <g transform="matrix(1,0,0,1,-28.50298,-2.3131)">
            <path d="M688.321,150.653L688.321,1602.004C688.321,1639.194 658.129,1669.387 620.939,1669.387L163.554,1669.387C126.365,1669.387 96.172,1639.194 96.172,1602.004L96.172,150.653C96.172,113.464 126.365,83.271 163.554,83.271L620.939,83.271C658.129,83.271 688.321,113.464 688.321,150.653Z" style="fill:rgb(239,233,246);stroke:rgb(172,148,207);stroke-width:8.33px;"/>
        </g>
        <g transform="matrix(3.144128,0,0,2.676912,-5831.483605,-4457.569587)">
            <g transform="matrix(1,0,0,1.155556,0,-236.097771)">
                <path d="M1924.102,1997.392L1924.1,1997.392L1924.1,1963.93L2016.723,1963.93L2016.723,1997.392L2016.721,1997.392C2016.722,1997.457 2016.723,1997.522 2016.723,1997.587C2016.723,2008.754 1995.972,2017.82 1970.412,2017.82C1944.852,2017.82 1924.1,2008.754 1924.1,1997.587C1924.1,1997.522 1924.101,1997.457 1924.102,1997.392Z" style="fill:rgb(144,68,255);stroke:black;stroke-width:6.68px;stroke-miterlimit:1;"/>
            </g>
            <g transform="matrix(1,0,0,1.155556,0,-274.990404)">
                <path d="M1924.102,1997.392L1924.1,1997.392L1924.1,1963.93L2016.723,1963.93L2016.723,1997.392L2016.721,1997.392C2016.722,1997.457 2016.723,1997.522 2016.723,1997.587C2016.723,2008.754 1995.972,2017.82 1970.412,2017.82C1944.852,2017.82 1924.1,2008.754 1924.1,1997.587C1924.1,1997.522 1924.101,1997.457 1924.102,1997.392Z" style="fill:rgb(144,68,255);stroke:black;stroke-width:6.68px;stroke-miterlimit:1;"/>
            </g>
            <g transform="matrix(1,0,0,1.155556,0,-313.883037)">
                <ellipse cx="1970.412" cy="1997.587" rx="46.311" ry="20.233" style="fill:rgb(144,68,255);stroke:black;stroke-width:6.68px;stroke-miterlimit:1;"/>
            </g>
        </g>
        <g transform="matrix(1,0,0,1,-137.284542,-889.590086)">
            <g transform="matrix(50,0,0,50,657.046185,1254.353056)">
            </g>
            <text x="342.862px" y="1254.353px" style="font-family:'Roboto-Bold', 'Roboto';font-weight:700;font-size:50px;stroke:black;stroke-width:1px;stroke-linecap:butt;stroke-miterlimit:2;">POST<tspan x="470.62px " y="1254.353px ">G</tspan>RESQL</text>
        </g>
        <g transform="matrix(1,0,0,1,-137.481889,-1005.127602)">
            <text x="291.458px" y="1254.353px" style="font-family:'Roboto-Bold', 'Roboto';font-weight:700;font-size:50px;stroke:black;stroke-width:1px;stroke-linecap:butt;stroke-miterlimit:2;">BANCO</text>
            <g transform="matrix(50,0,0,50,708.449993,1254.353056)">
            </g>
            <text x="472px" y="1254.353px" style="font-family:'Roboto-Bold', 'Roboto';font-weight:700;font-size:50px;">DE D<tspan x="577.054px " y="1254.353px ">A</tspan>DOS</text>
        </g>
    </g>
    <g transform="matrix(1,0,0,1,2087.054557,0)">
        <g transform="matrix(1,0,0,1,-29.078744,-2.3131)">
            <path d="M688.321,150.653L688.321,1602.004C688.321,1639.194 658.129,1669.387 620.939,1669.387L163.554,1669.387C126.365,1669.387 96.172,1639.194 96.172,1602.004L96.172,150.653C96.172,113.464 126.365,83.271 163.554,83.271L620.939,83.271C658.129,83.271 688.321,113.464 688.321,150.653Z" style="fill:rgb(254,243,222);stroke:rgb(246,207,145);stroke-width:8.33px;"/>
        </g>
        <g transform="matrix(1.009445,0,0,1.009445,-420.647679,-1311.787136)">
            <g transform="matrix(-1,0,0,-1,1562.672366,4551.546958)">
                <path d="M782.193,2181L698.47,2181L698.393,2141.165C698.393,2141.165 696.051,2123.057 722.27,2112.293C748.489,2101.529 791.375,2103.65 791.375,2103.65C791.375,2103.65 858.41,2104.324 865.151,2143.935L865.151,2231.717C865.151,2231.717 862.121,2270.151 817.963,2270.151L735.173,2270.54C735.173,2270.54 691.01,2267.195 687.272,2316.078L687.194,2360.713L652.312,2360.324C652.312,2360.324 621.119,2357.125 612.287,2309.931C603.456,2262.737 616.102,2228.989 616.102,2228.989C616.102,2228.989 625.862,2192.169 668.772,2192.792L782.295,2192.9L782.193,2181ZM734.349,2129.878C725.978,2129.878 719.182,2136.674 719.182,2145.044C719.182,2153.415 725.978,2160.211 734.349,2160.211C742.719,2160.211 749.515,2153.415 749.515,2145.044C749.515,2136.674 742.719,2129.878 734.349,2129.878Z" style="fill:rgb(255,216,73);"/>
                <path d="M677.814,2172.162L677.758,2142.413C677.503,2139.347 677.434,2131.555 681.738,2122.165C685.856,2113.181 694.377,2101.434 714.432,2093.201C742.379,2081.728 787.053,2082.859 791.857,2083.018C794.824,2083.084 821.308,2083.941 844.285,2093.624C864.566,2102.172 881.546,2117.256 885.497,2140.472C885.691,2141.616 885.789,2142.774 885.789,2143.935L885.789,2231.717C885.789,2232.259 885.768,2232.799 885.725,2233.339C885.725,2233.339 883.628,2261.732 859.517,2278.72C849.874,2285.515 836.601,2290.777 818.027,2290.789L735.271,2291.179C734.718,2291.181 734.166,2291.162 733.615,2291.12C733.615,2291.12 722.129,2290.17 714.578,2298.524C710.99,2302.494 708.657,2308.467 707.909,2316.94L707.832,2360.749C707.823,2366.257 705.612,2371.532 701.693,2375.401C697.773,2379.27 692.47,2381.412 686.963,2381.35L652.082,2380.961C651.456,2380.954 650.83,2380.918 650.207,2380.855C650.207,2380.855 637.483,2380.062 623.203,2369.316C611.58,2360.57 597.766,2344.536 592.001,2313.728C582.859,2264.872 594.33,2228.711 596.44,2222.677C598.627,2215.37 614.065,2171.437 668.922,2172.154L677.814,2172.162ZM782.193,2181L782.295,2192.9L668.772,2192.792C625.862,2192.169 616.102,2228.989 616.102,2228.989C616.102,2228.989 603.456,2262.737 612.287,2309.931C621.119,2357.125 652.312,2360.324 652.312,2360.324L687.194,2360.713L687.272,2316.078C691.01,2267.195 735.173,2270.54 735.173,2270.54L817.963,2270.151C862.121,2270.151 865.151,2231.717 865.151,2231.717L865.151,2143.935C858.41,2104.324 791.375,2103.65 791.375,2103.65C791.375,2103.65 748.489,2101.529 722.27,2112.293C696.051,2123.057 698.393,2141.165 698.393,2141.165L698.47,2181L782.193,2181ZM734.349,2129.878C742.719,2129.878 749.515,2136.674 749.515,2145.044C749.515,2153.415 742.719,2160.211 734.349,2160.211C725.978,2160.211 719.182,2153.415 719.182,2145.044C719.182,2136.674 725.978,2129.878 734.349,2129.878ZM734.349,2150.516C737.369,2150.516 739.82,2148.064 739.82,2145.044C739.82,2142.025 737.369,2139.573 734.349,2139.573C731.329,2139.573 728.877,2142.025 728.877,2145.044C728.877,2148.064 731.329,2150.516 734.349,2150.516Z" style="fill:white;"/>
            </g>
            <g transform="matrix(1,0,0,1,-9.906435,0)">
                <path d="M782.193,2181L698.47,2181L698.393,2141.165C698.393,2141.165 696.051,2123.057 722.27,2112.293C748.489,2101.529 791.375,2103.65 791.375,2103.65C791.375,2103.65 858.41,2104.324 865.151,2143.935L865.151,2231.717C865.151,2231.717 862.121,2270.151 817.963,2270.151L735.173,2270.54C735.173,2270.54 691.01,2267.195 687.272,2316.078L687.194,2360.713L652.312,2360.324C652.312,2360.324 621.119,2357.125 612.287,2309.931C603.456,2262.737 616.102,2228.989 616.102,2228.989C616.102,2228.989 625.862,2192.169 668.772,2192.792L782.295,2192.9L782.193,2181ZM734.349,2129.878C725.978,2129.878 719.182,2136.674 719.182,2145.044C719.182,2153.415 725.978,2160.211 734.349,2160.211C742.719,2160.211 749.515,2153.415 749.515,2145.044C749.515,2136.674 742.719,2129.878 734.349,2129.878Z" style="fill:rgb(55,114,164);"/>
                <path d="M677.814,2172.162L677.758,2142.413C677.503,2139.347 677.434,2131.555 681.738,2122.165C685.856,2113.181 694.377,2101.434 714.432,2093.201C742.379,2081.728 787.053,2082.859 791.857,2083.018C794.824,2083.084 821.308,2083.941 844.285,2093.624C864.566,2102.172 881.546,2117.256 885.497,2140.472C885.691,2141.616 885.789,2142.774 885.789,2143.935L885.789,2231.717C885.789,2232.259 885.768,2232.799 885.725,2233.339C885.725,2233.339 883.628,2261.732 859.517,2278.72C849.874,2285.515 836.601,2290.777 818.027,2290.789L735.271,2291.179C734.718,2291.181 734.166,2291.162 733.615,2291.12C733.615,2291.12 722.129,2290.17 714.578,2298.524C710.99,2302.494 708.657,2308.467 707.909,2316.94L707.832,2360.749C707.823,2366.257 705.612,2371.532 701.693,2375.401C697.773,2379.27 692.47,2381.412 686.963,2381.35L652.082,2380.961C651.456,2380.954 650.83,2380.918 650.207,2380.855C650.207,2380.855 637.483,2380.062 623.203,2369.316C611.58,2360.57 597.766,2344.536 592.001,2313.728C582.859,2264.872 594.33,2228.711 596.44,2222.677C598.627,2215.37 614.065,2171.437 668.922,2172.154L677.814,2172.162ZM653.439,2360.336L652.312,2380.962C663.627,2380.962 672.825,2371.854 672.95,2360.554L687.194,2360.713L687.272,2316.078C691.01,2267.195 735.173,2270.54 735.173,2270.54L817.963,2270.151C862.121,2270.151 865.151,2231.717 865.151,2231.717L865.151,2143.935C858.41,2104.324 791.375,2103.65 791.375,2103.65C791.375,2103.65 748.489,2101.529 722.27,2112.293C696.051,2123.057 698.393,2141.165 698.393,2141.165L698.47,2181L782.193,2181L782.295,2192.9L668.772,2192.792C625.862,2192.169 616.102,2228.989 616.102,2228.989C616.102,2228.989 603.456,2262.737 612.287,2309.931C621.119,2357.125 652.312,2360.324 652.312,2360.324L653.439,2360.336ZM734.349,2129.878C742.719,2129.878 749.515,2136.674 749.515,2145.044C749.515,2153.415 742.719,2160.211 734.349,2160.211C725.978,2160.211 719.182,2153.415 719.182,2145.044C719.182,2136.674 725.978,2129.878 734.349,2129.878ZM734.349,2150.516C737.369,2150.516 739.82,2148.064 739.82,2145.044C739.82,2142.025 737.369,2139.573 734.349,2139.573C731.329,2139.573 728.877,2142.025 728.877,2145.044C728.877,2148.064 731.329,2150.516 734.349,2150.516Z" style="fill:white;"/>
            </g>
        </g>
        <g transform="matrix(1,0,0,1,-137.384233,-917.037595)">
            <text x="324.122px" y="1254.353px" style="font-family:'Roboto-Bold', 'Roboto';font-weight:700;font-size:41.667px;stroke:black;stroke-width:1px;stroke-linecap:butt;stroke-miterlimit:2;">(Ser<tspan x="402.45px " y="1254.353px ">v</tspan>iços e Regr<tspan x="632.024px " y="1254.353px ">a</tspan>s</text>
            <g transform="matrix(41.666667,0,0,41.666667,613.296185,1303.181181)">
            </g>
            <text x="386.612px" y="1303.181px" style="font-family:'Roboto-Bold', 'Roboto';font-weight:700;font-size:41.667px;stroke:black;stroke-width:1px;stroke-linecap:butt;stroke-miterlimit:2;">de Negócio)</text>
        </g>
        <g transform="matrix(1,0,0,1,-136.757606,-1005.127602)">
            <g transform="matrix(50,0,0,50,734.634075,1254.353056)">
            </g>
            <text x="265.274px" y="1254.353px" style="font-family:'Roboto-Bold', 'Roboto';font-weight:700;font-size:50px;">BA<tspan x="330.313px " y="1254.353px ">C</tspan>KEND - PY<tspan x="598.55px " y="1254.353px ">T</tspan>HON</text>
        </g>
    </g>
    <g transform="matrix(1,0,0,1,1390.769197,0)">
        <g transform="matrix(1,0,0,1,-29.078744,-2.3131)">
            <path d="M688.321,150.653L688.321,1602.004C688.321,1639.194 658.129,1669.387 620.939,1669.387L163.554,1669.387C126.365,1669.387 96.172,1639.194 96.172,1602.004L96.172,150.653C96.172,113.464 126.365,83.271 163.554,83.271L620.939,83.271C658.129,83.271 688.321,113.464 688.321,150.653Z" style="fill:rgb(230,240,253);stroke:rgb(62,84,153);stroke-width:8.33px;"/>
        </g>
        <g transform="matrix(0.848799,0,0,0.848799,-312.547444,-100.899157)">
            <g transform="matrix(1.144905,0,0,1.144905,-1417.025565,-1327.524517)">
                <g transform="matrix(2.400044,0,0,2.400044,-2797.447067,-3187.62843)">
                    <g transform="matrix(1,0,0,0.857914,-2.963835,326.624237)">
                        <path d="M1931.123,2326.54C1915.902,2325.608 1903.79,2310.908 1903.79,2292.936C1903.79,2276.433 1914.003,2262.688 1927.458,2259.83C1927.452,2259.492 1927.449,2259.152 1927.449,2258.812C1927.449,2233.53 1945.058,2213.005 1966.747,2213.005C1983.701,2213.005 1998.162,2225.546 2003.668,2243.097C2005.413,2242.24 2007.33,2241.766 2009.341,2241.766C2017.412,2241.766 2023.964,2249.404 2023.964,2258.812C2023.964,2259.489 2023.93,2260.157 2023.864,2260.814C2035.592,2265.092 2044.111,2277.864 2044.111,2292.936C2044.111,2311.509 2031.175,2326.587 2015.241,2326.587C2014.417,2326.587 2013.6,2326.547 2012.793,2326.468L2012.793,2326.587L1931.123,2326.587L1931.123,2326.54Z" style="fill:rgb(230,240,253);stroke:black;stroke-width:11.5px;stroke-miterlimit:1;"/>
                    </g>
                    <g transform="matrix(0.471833,0,0,0.520156,1584.417984,1346.828686)">
                        <rect x="730.415" y="1782.319" width="163.397" height="105.77" style="fill:rgb(230,240,253);"/>
                    </g>
                </g>
            </g>
            <g transform="matrix(1,0,0,1,-467.764017,1000.322989)">
                <g transform="matrix(125,0,0,125,1357.24063,421.697895)">
                </g>
                <text x="1156.069px" y="421.698px" style="font-family:'Roboto-Bold', 'Roboto';font-weight:700;font-size:125px;">API</text>
            </g>
        </g>
        <g transform="matrix(1,0,0,1,-136.301876,-1005.127602)">
            <text x="392.642px" y="1254.353px" style="font-family:'Roboto-Bold', 'Roboto';font-weight:700;font-size:50px;stroke:black;stroke-width:1px;stroke-linecap:butt;stroke-miterlimit:2;">API REST</text>
            <g transform="matrix(41.666667,0,0,41.666667,595.056846,1303.181181)">
            </g>
            <text x="404.851px" y="1303.181px" style="font-family:'Roboto-Bold', 'Roboto';font-weight:700;font-size:41.667px;stroke:black;stroke-width:1px;stroke-linecap:butt;stroke-miterlimit:2;">(Gatewa<tspan x="559.453px " y="1303.181px ">y</tspan>)</text>
        </g>
    </g>
    <g transform="matrix(1,0,0,1,695.027406,0)">
        <g transform="matrix(1,0,0,1,-29.078744,-2.3131)">
            <path d="M688.321,150.653L688.321,1602.004C688.321,1639.194 658.129,1669.387 620.939,1669.387L163.554,1669.387C126.365,1669.387 96.172,1639.194 96.172,1602.004L96.172,150.653C96.172,113.464 126.365,83.271 163.554,83.271L620.939,83.271C658.129,83.271 688.321,113.464 688.321,150.653Z" style="fill:rgb(233,244,221);stroke:rgb(97,138,75);stroke-width:8.33px;"/>
        </g>
        <g transform="matrix(1,0,0,1,-138.324175,-1005.615883)">
            <text x="382.461px" y="1254.353px" style="font-family:'Roboto-Bold', 'Roboto';font-weight:700;font-size:50px;">IN<tspan x="431.631px " y="1254.353px ">T</tspan>ERNE<tspan x="586.514px " y="1254.353px ">T</tspan></text>
            <g transform="matrix(50,0,0,50,579.88554,1312.946806)">
            </g>
            <text x="420.022px" y="1312.947px" style="font-family:'Roboto-Bold', 'Roboto';font-weight:700;font-size:50px;">H<tspan x="454.641px 485.965px " y="1312.947px 1312.947px ">TT</tspan>PS</text>
        </g>
        <g transform="matrix(1,0,0,1,0,101.33132)">
            <g transform="matrix(1,0,0,1,-0.141932,-406.822148)">
                <g transform="matrix(1,0,0,1,0.141932,0.390024)">
                    <g transform="matrix(1,0,0,1,-38.892861,-26.964006)">
                        <circle cx="402.061" cy="1307.412" r="138.618" style="fill:rgb(233,244,221);stroke:rgb(97,138,75);stroke-width:12.5px;"/>
                    </g>
                    <g transform="matrix(1,0,0,1,-38.892861,-26.964006)">
                        <path d="M292.621,1222.367C317.994,1189.774 357.596,1168.793 402.061,1168.793C446.577,1168.793 486.221,1189.823 511.59,1222.482" style="fill:none;stroke:rgb(97,138,75);stroke-width:12.5px;"/>
                    </g>
                    <g transform="matrix(1,0,0,1,-38.892861,-26.964006)">
                        <path d="M511.59,1222.482C529.82,1245.95 540.679,1275.423 540.679,1307.412C540.679,1338.595 530.36,1367.387 512.953,1390.557" style="fill:none;stroke:rgb(97,138,75);stroke-width:12.5px;"/>
                    </g>
                    <g transform="matrix(1,0,0,1,-38.892861,-26.964006)">
                        <path d="M512.953,1390.557C487.654,1424.232 447.383,1446.03 402.061,1446.03C356.792,1446.03 316.562,1424.283 291.257,1390.676" style="fill:none;stroke:rgb(97,138,75);stroke-width:12.5px;"/>
                    </g>
                    <g transform="matrix(1,0,0,1,-38.892861,-26.964006)">
                        <path d="M291.257,1390.676C273.797,1367.486 263.442,1338.648 263.442,1307.412C263.442,1275.371 274.337,1245.854 292.621,1222.367" style="fill:none;stroke:rgb(97,138,75);stroke-width:12.5px;"/>
                    </g>
                    <g transform="matrix(0.45752,0,0,1,179.35901,-26.964006)">
                        <circle cx="402.061" cy="1307.412" r="138.618" style="fill:rgb(233,244,221);stroke:rgb(97,138,75);stroke-width:16.08px;"/>
                    </g>
                    <g transform="matrix(0,0.45752,-1,0,1670.72162,972.626372)">
                        <path d="M487.173,1198.025C519.728,1223.4 540.679,1262.978 540.679,1307.412C540.679,1351.959 519.62,1391.627 486.923,1416.994" style="fill:none;stroke:rgb(97,138,75);stroke-width:16.08px;"/>
                    </g>
                    <g transform="matrix(0,0.45752,-1,0,1670.72162,1217.769257)">
                        <path d="M318.986,1418.357C285.271,1393.061 263.442,1352.766 263.442,1307.412C263.442,1262.174 285.159,1221.969 318.727,1196.661" style="fill:none;stroke:rgb(97,138,75);stroke-width:16.08px;"/>
                    </g>
                    <g transform="matrix(1,0,0,1,-0,23.791643)">
                        <path d="M224.691,1256.656L501.786,1256.656" style="fill:none;stroke:rgb(97,138,75);stroke-width:12.5px;"/>
                    </g>
                </g>
            </g>
            <g transform="matrix(2.661997,0,0,2.661997,-4771.598567,-5926.14645)">
                <g>
                    <g transform="matrix(1,0,0,1,0.299908,-3.653209)">
                        <path d="M1980.689,2581.708L1959.857,2581.708C1958.801,2579.606 1958.245,2577.222 1958.245,2574.795C1958.245,2567.164 1963.634,2560.969 1970.273,2560.969C1976.911,2560.969 1982.3,2567.164 1982.3,2574.795C1982.3,2577.222 1981.744,2579.606 1980.689,2581.708Z" style="fill:none;stroke:rgb(58,138,227);stroke-width:9.39px;stroke-linecap:butt;stroke-miterlimit:1;"/>
                    </g>
                    <g transform="matrix(1,0,0,1,0.299908,-3.653209)">
                        <path d="M1980.689,2581.708L1959.857,2581.708C1958.801,2579.606 1958.245,2577.222 1958.245,2574.795C1958.245,2567.164 1963.634,2560.969 1970.273,2560.969C1976.911,2560.969 1982.3,2567.164 1982.3,2574.795C1982.3,2577.222 1981.744,2579.606 1980.689,2581.708Z" style="fill:none;stroke:rgb(58,138,227);stroke-width:4.7px;stroke-linecap:butt;stroke-miterlimit:1;"/>
                    </g>
                    <g transform="matrix(1.041037,0,0,1.111446,-105.005183,-306.351761)">
                        <path d="M2020.407,2599.063L2020.407,2618.17C2020.407,2623.443 2015.836,2627.723 2010.207,2627.723L1977.313,2627.723C1971.684,2627.723 1967.114,2623.443 1967.114,2618.17L1967.114,2599.063C1967.114,2593.79 1971.684,2589.509 1977.313,2589.509L2010.207,2589.509C2015.836,2589.509 2020.407,2593.79 2020.407,2599.063Z" style="fill:rgb(255,253,253);stroke:rgb(58,138,227);stroke-width:4.36px;stroke-linecap:butt;stroke-miterlimit:1;"/>
                    </g>
                    <g transform="matrix(1.041037,0,0,1.111446,-105.005183,-306.351761)">
                        <path d="M2020.407,2599.063L2020.407,2618.17C2020.407,2623.443 2015.836,2627.723 2010.207,2627.723L1977.313,2627.723C1971.684,2627.723 1967.114,2623.443 1967.114,2618.17L1967.114,2599.063C1967.114,2593.79 1971.684,2589.509 1977.313,2589.509L2010.207,2589.509C2015.836,2589.509 2020.407,2593.79 2020.407,2599.063Z" style="fill:white;"/>
                        <path d="M2020.407,2599.063L2020.407,2618.17C2020.407,2623.443 2015.836,2627.723 2010.207,2627.723L1977.313,2627.723C1971.684,2627.723 1967.114,2623.443 1967.114,2618.17L1967.114,2599.063C1967.114,2593.79 1971.684,2589.509 1977.313,2589.509L2010.207,2589.509C2015.836,2589.509 2020.407,2593.79 2020.407,2599.063ZM2015.896,2599.062C2015.896,2596.121 2013.347,2593.734 2010.207,2593.734L1977.313,2593.734C1974.174,2593.734 1971.624,2596.121 1971.624,2599.063L1971.624,2618.17C1971.624,2621.111 1974.174,2623.499 1977.313,2623.499L2010.207,2623.499C2013.347,2623.499 2015.896,2621.111 2015.896,2618.17L2015.896,2599.062Z" style="fill:rgb(58,138,227);"/>
                    </g>
                </g>
                <g transform="matrix(1.216489,0,0,1.216489,-426.558125,-562.327451)">
                    <g transform="matrix(0.935234,0,0,1.429288,125.47861,-1117.222603)">
                        <path d="M1972.825,2590.362L1977.257,2602.855L1968.393,2602.855L1972.825,2590.362Z" style="fill:rgb(145,186,99);"/>
                        <path d="M1972.825,2590.362L1977.257,2602.855L1968.393,2602.855L1972.825,2590.362Z" style="fill:rgb(58,138,227);"/>
                    </g>
                    <g transform="matrix(1.829897,0,0,1.514626,-1639.483386,-1330.971475)">
                        <ellipse cx="1972.797" cy="2588.009" rx="2.265" ry="2.86" style="fill:rgb(145,186,99);"/>
                        <path d="M1972.797,2585.149C1974.047,2585.149 1975.062,2586.431 1975.062,2588.009C1975.062,2589.587 1974.047,2590.869 1972.797,2590.869C1971.547,2590.869 1970.532,2589.587 1970.532,2588.009C1970.532,2586.431 1971.547,2585.149 1972.797,2585.149ZM1972.797,2587.698C1972.682,2587.698 1972.641,2587.864 1972.641,2588.009C1972.641,2588.154 1972.682,2588.32 1972.797,2588.32C1972.912,2588.32 1972.953,2588.154 1972.953,2588.009C1972.953,2587.864 1972.912,2587.698 1972.797,2587.698Z" style="fill:rgb(58,138,227);"/>
                    </g>
                </g>
            </g>
        </g>
    </g>
    <g transform="matrix(1,0,0,1,-1.008367,0)">
        <g transform="matrix(1,0,0,1,-29.078744,-2.3131)">
            <path d="M688.321,150.653L688.321,1602.004C688.321,1639.194 658.129,1669.387 620.939,1669.387L163.554,1669.387C126.365,1669.387 96.172,1639.194 96.172,1602.004L96.172,150.653C96.172,113.464 126.365,83.271 163.554,83.271L620.939,83.271C658.129,83.271 688.321,113.464 688.321,150.653Z" style="fill:rgb(235,235,235);stroke:black;stroke-width:8.33px;"/>
        </g>
        <g transform="matrix(0.914088,0,0,0.914088,35.504661,322.151906)">
            <g transform="matrix(0.72291,0,0,0.72291,100.771955,341.938363)">
                <g transform="matrix(1,0,0,1,-38.892861,-26.964006)">
                    <circle cx="402.061" cy="1307.412" r="138.618" style="fill:white;stroke:rgb(50,68,82);stroke-width:18.92px;"/>
                </g>
                <g transform="matrix(1,0,0,1,-38.892861,-26.964006)">
                    <path d="M292.621,1222.367C317.994,1189.774 357.596,1168.793 402.061,1168.793C446.577,1168.793 486.221,1189.823 511.59,1222.482" style="fill:none;stroke:rgb(50,68,82);stroke-width:18.92px;"/>
                </g>
                <g transform="matrix(1,0,0,1,-38.892861,-26.964006)">
                    <path d="M511.59,1222.482C529.82,1245.95 540.679,1275.423 540.679,1307.412C540.679,1338.595 530.36,1367.387 512.953,1390.557" style="fill:none;stroke:rgb(50,68,82);stroke-width:18.92px;"/>
                </g>
                <g transform="matrix(1,0,0,1,-38.892861,-26.964006)">
                    <path d="M512.953,1390.557C487.654,1424.232 447.383,1446.03 402.061,1446.03C356.792,1446.03 316.562,1424.283 291.257,1390.676" style="fill:none;stroke:rgb(50,68,82);stroke-width:18.92px;"/>
                </g>
                <g transform="matrix(1,0,0,1,-38.892861,-26.964006)">
                    <path d="M291.257,1390.676C273.797,1367.486 263.442,1338.648 263.442,1307.412C263.442,1275.371 274.337,1245.854 292.621,1222.367" style="fill:none;stroke:rgb(50,68,82);stroke-width:18.92px;"/>
                </g>
                <g transform="matrix(0.45752,0,0,1,179.35901,-26.964006)">
                    <circle cx="402.061" cy="1307.412" r="138.618" style="fill:none;stroke:rgb(50,68,82);stroke-width:24.33px;"/>
                </g>
                <g transform="matrix(0,0.45752,-1,0,1670.72162,972.626372)">
                    <path d="M487.173,1198.025C519.728,1223.4 540.679,1262.978 540.679,1307.412C540.679,1351.959 519.62,1391.627 486.923,1416.994" style="fill:none;stroke:rgb(50,68,82);stroke-width:24.33px;"/>
                </g>
                <g transform="matrix(0,0.45752,-1,0,1670.72162,1217.769257)">
                    <path d="M318.986,1418.357C285.271,1393.061 263.442,1352.766 263.442,1307.412C263.442,1262.174 285.159,1221.969 318.727,1196.661" style="fill:none;stroke:rgb(50,68,82);stroke-width:24.33px;"/>
                </g>
                <g transform="matrix(1,0,0,1,-0,23.791643)">
                    <path d="M224.691,1256.656L501.786,1256.656" style="fill:none;stroke:rgb(50,68,82);stroke-width:18.92px;"/>
                </g>
            </g>
            <g transform="matrix(1,0,0,1,7.178043,-6.40413)">
                <g transform="matrix(0.516594,0,0,0.516594,56.946479,673.962767)">
                    <g transform="matrix(1,0,0,-1,71.584626,2626.613649)">
                        <path d="M610.781,1278.026L657.786,1326.002L786.293,1196.017L692.034,1194.995L610.781,1278.026Z" style="fill:white;"/>
                        <path d="M601.327,1287.288L648.332,1335.264C650.814,1337.798 654.209,1339.229 657.756,1339.237C661.303,1339.245 664.705,1337.829 667.198,1335.307L795.706,1205.323C799.441,1201.544 800.555,1195.898 798.534,1190.984C796.513,1186.069 791.75,1182.84 786.437,1182.782L692.178,1181.76C688.568,1181.721 685.099,1183.158 682.574,1185.738L601.322,1268.769C596.285,1273.915 596.288,1282.145 601.327,1287.288ZM610.781,1278.026L692.034,1194.995L786.293,1196.017L657.786,1326.002L610.781,1278.026Z" style="fill:white;"/>
                    </g>
                    <g transform="matrix(1,0,0,1,71.584626,71.153408)">
                        <path d="M610.781,1278.026L657.786,1326.002L786.293,1196.017L692.034,1194.995L610.781,1278.026Z" style="fill:white;"/>
                        <path d="M601.322,1268.769L682.574,1185.738C685.099,1183.158 688.568,1181.721 692.178,1181.76L786.437,1182.782C791.75,1182.84 796.513,1186.069 798.534,1190.984C800.555,1195.898 799.441,1201.544 795.706,1205.323L667.198,1335.307C664.705,1337.829 661.303,1339.245 657.756,1339.237C654.209,1339.229 650.814,1337.798 648.332,1335.264L601.327,1287.288C596.288,1282.145 596.285,1273.915 601.322,1268.769ZM610.781,1278.026L657.786,1326.002L786.293,1196.017L692.034,1194.995L610.781,1278.026Z" style="fill:white;"/>
                    </g>
                    <path d="M610.781,1278.026L657.786,1326.002L857.878,1124.433L764.3,1124.433L610.781,1278.026Z" style="fill:white;"/>
                    <path d="M601.42,1268.669L754.939,1115.076C757.421,1112.592 760.789,1111.197 764.3,1111.197L857.878,1111.197C863.222,1111.197 868.042,1114.411 870.097,1119.345C872.151,1124.279 871.036,1129.964 867.271,1133.757L667.179,1335.326C664.684,1337.84 661.285,1339.249 657.743,1339.237C654.2,1339.225 650.811,1337.794 648.332,1335.264L601.327,1287.288C596.249,1282.106 596.291,1273.801 601.42,1268.669ZM610.781,1278.026L657.786,1326.002L857.878,1124.433L764.3,1124.433L610.781,1278.026Z" style="fill:white;"/>
                </g>
                <g transform="matrix(0.516594,0,0,0.516594,56.946479,673.962767)">
                    <g transform="matrix(1,0,0,-1,71.584626,2626.613649)">
                        <path d="M610.781,1278.026L657.786,1326.002L786.293,1196.017L692.034,1194.995L610.781,1278.026Z" style="fill:rgb(25,89,154);"/>
                    </g>
                    <g transform="matrix(1,0,0,1,71.584626,71.153408)">
                        <path d="M610.781,1278.026L657.786,1326.002L786.293,1196.017L692.034,1194.995L610.781,1278.026Z" style="fill:rgb(63,182,211);fill-opacity:0.75;"/>
                    </g>
                    <path d="M610.781,1278.026L657.786,1326.002L857.878,1124.433L764.3,1124.433L610.781,1278.026Z" style="fill:rgb(63,182,211);fill-opacity:0.75;"/>
                </g>
            </g>
            <g transform="matrix(1,0,0,1,152.20799,27.254709)">
                <g transform="matrix(0.787465,0,0,0.787465,-706.919734,798.729426)">
                    <g transform="matrix(2.720507,0,0,3.206538,-4118.152168,-4569.995545)">
                        <g transform="matrix(1.108696,0,0,1.125984,-220.707758,-188.677688)">
                            <path d="M2040.853,1451.487L2040.853,1512.541C2040.853,1515.39 2038.084,1517.703 2034.674,1517.703L1995.325,1517.703C1991.915,1517.703 1989.146,1515.39 1989.146,1512.541L1989.146,1451.487C1989.146,1448.638 1991.915,1446.325 1995.325,1446.325L2034.674,1446.325C2038.084,1446.325 2040.853,1448.638 2040.853,1451.487Z" style="fill:rgb(50,68,82);"/>
                        </g>
                        <g transform="matrix(2.625409,0,0,2.216772,-3408.024987,-1847.210845)">
                            <circle cx="2064.95" cy="1516.509" r="1.616" style="fill:white;"/>
                        </g>
                        <g transform="matrix(1.219947,0,0,1.271317,-443.850436,-398.483967)">
                            <path d="M2033.266,1455.945L2033.266,1497.124C2033.266,1499.176 2031.219,1500.842 2028.699,1500.842L1999.614,1500.842C1997.094,1500.842 1995.047,1499.176 1995.047,1497.124L1995.047,1455.945C1995.047,1453.892 1997.094,1452.226 1999.614,1452.226L2028.699,1452.226C2031.219,1452.226 2033.266,1453.892 2033.266,1455.945Z" style="fill:white;"/>
                        </g>
                        <g transform="matrix(2.625409,0,0,1.077278,-3408.024987,-189.486623)">
                            <circle cx="2064.95" cy="1516.509" r="1.616" style="fill:white;"/>
                        </g>
                    </g>
                </g>
                <g transform="matrix(0.21884,0,0,0.21884,201.784877,654.001313)">
                    <g transform="matrix(1,0,0,-1,71.584626,2626.613649)">
                        <path d="M610.781,1278.026L657.786,1326.002L786.293,1196.017L692.034,1194.995L610.781,1278.026Z" style="fill:rgb(25,89,154);"/>
                    </g>
                    <g transform="matrix(1,0,0,1,71.584626,71.153408)">
                        <path d="M610.781,1278.026L657.786,1326.002L786.293,1196.017L692.034,1194.995L610.781,1278.026Z" style="fill:rgb(63,182,211);fill-opacity:0.75;"/>
                    </g>
                    <path d="M610.781,1278.026L657.786,1326.002L857.878,1124.433L764.3,1124.433L610.781,1278.026Z" style="fill:rgb(63,182,211);fill-opacity:0.75;"/>
                </g>
            </g>
            <g transform="matrix(1,0,0,1,-122.911174,-307.434612)">
                <g transform="matrix(0.787465,0,0,0.787465,-674.259631,1153.273262)">
                    <g transform="matrix(3.708424,0,0,4.370951,-6169.819229,-6318.59386)">
                        <g transform="matrix(1.329878,0,0,1.125984,-660.672217,-188.677688)">
                            <path d="M2040.853,1452.517L2040.853,1511.512C2040.853,1514.929 2038.084,1517.703 2034.674,1517.703L1995.325,1517.703C1991.915,1517.703 1989.146,1514.929 1989.146,1511.512L1989.146,1452.517C1989.146,1449.099 1991.915,1446.325 1995.325,1446.325L2034.674,1446.325C2038.084,1446.325 2040.853,1449.099 2040.853,1452.517Z" style="fill:rgb(50,68,82);"/>
                        </g>
                        <g transform="matrix(1.463324,0,0,1.389256,-928.331418,-569.757961)">
                            <path d="M2033.266,1456.308L2033.266,1496.761C2033.266,1499.013 2031.219,1500.842 2028.699,1500.842L1999.614,1500.842C1997.094,1500.842 1995.047,1499.013 1995.047,1496.761L1995.047,1456.308C1995.047,1454.055 1997.094,1452.226 1999.614,1452.226L2028.699,1452.226C2031.219,1452.226 2033.266,1454.055 2033.266,1456.308Z" style="fill:white;"/>
                        </g>
                        <g transform="matrix(2.625409,0,0,1.077278,-3402.306647,-189.739367)">
                            <circle cx="2064.95" cy="1516.509" r="1.616" style="fill:white;"/>
                        </g>
                    </g>
                </g>
                <g transform="matrix(0.485473,0,0,0.485473,6.812795,656.522202)">
                    <g transform="matrix(1,0,0,-1,71.584626,2626.613649)">
                        <path d="M610.781,1278.026L657.786,1326.002L786.293,1196.017L692.034,1194.995L610.781,1278.026Z" style="fill:rgb(25,89,154);"/>
                    </g>
                    <g transform="matrix(1,0,0,1,71.584626,71.153408)">
                        <path d="M610.781,1278.026L657.786,1326.002L786.293,1196.017L692.034,1194.995L610.781,1278.026Z" style="fill:rgb(63,182,211);fill-opacity:0.75;"/>
                    </g>
                    <path d="M610.781,1278.026L657.786,1326.002L857.878,1124.433L764.3,1124.433L610.781,1278.026Z" style="fill:rgb(63,182,211);fill-opacity:0.75;"/>
                </g>
            </g>
            <g transform="matrix(1,0,0,1,0,5.617309)">
                <g transform="matrix(2.360712,0,0,2.360712,-4243.584526,-2849.513893)">
                    <g transform="matrix(0.479742,0,0,0.423601,1769.059419,1129.145948)">
                        <path d="M536.871,939.25L223.645,939.25L259.047,899.157L501.47,899.157L536.871,939.25Z" style="fill:rgb(50,68,82);stroke:rgb(50,68,82);stroke-width:12.8px;"/>
                    </g>
                    <g transform="matrix(1.159645,0,0,0.918934,-311.484001,137.336731)">
                        <path d="M2002.49,1421.748L2002.49,1490.516C2002.49,1492.322 2001.328,1493.788 1999.896,1493.788L1903.074,1493.788C1901.643,1493.788 1900.481,1492.322 1900.481,1490.516L1900.481,1421.748C1900.481,1419.942 1901.643,1418.476 1903.074,1418.476L1999.896,1418.476C2001.328,1418.476 2002.49,1419.942 2002.49,1421.748Z" style="fill:white;stroke:rgb(50,68,82);stroke-width:5.54px;stroke-miterlimit:1;"/>
                    </g>
                    <g transform="matrix(0.434518,0,0,0.306983,1786.318237,1235.527788)">
                        <path d="M536.871,939.25L223.645,939.25L248.073,899.157L512.444,899.157L536.871,939.25Z" style="fill:rgb(50,68,82);stroke:white;stroke-width:5.13px;"/>
                    </g>
                    <g transform="matrix(0.091313,0,0,0.129023,1919.056919,1399.923127)">
                        <path d="M536.871,939.25L223.645,939.25L248.073,899.157L512.444,899.157L536.871,939.25Z" style="fill:white;"/>
                    </g>
                </g>
                <g transform="matrix(0.32921,0,0,0.32921,120.736845,212.80309)">
                    <g transform="matrix(1,0,0,-1,71.584626,2626.613649)">
                        <path d="M610.781,1278.026L657.786,1326.002L786.293,1196.017L692.034,1194.995L610.781,1278.026Z" style="fill:rgb(25,89,154);"/>
                    </g>
                    <g transform="matrix(1,0,0,1,71.584626,71.153408)">
                        <path d="M610.781,1278.026L657.786,1326.002L786.293,1196.017L692.034,1194.995L610.781,1278.026Z" style="fill:rgb(63,182,211);fill-opacity:0.75;"/>
                    </g>
                    <path d="M610.781,1278.026L657.786,1326.002L857.878,1124.433L764.3,1124.433L610.781,1278.026Z" style="fill:rgb(63,182,211);fill-opacity:0.75;"/>
                </g>
            </g>
            <g transform="matrix(1,0,0,1,0,6.200317)">
                <g transform="matrix(3.146882,0,0,3.146882,-5777.78382,-4284.45259)">
                    <g transform="matrix(1,0,0,0.675213,0.562034,504.941676)">
                        <path d="M1977.76,1497.582L1924.086,1497.582C1924.086,1488.503 1936.102,1481.142 1950.923,1481.142C1965.745,1481.142 1977.76,1488.503 1977.76,1497.582Z" style="fill:rgb(50,68,82);"/>
                    </g>
                    <g transform="matrix(1,0,0,1,2.388643,0)">
                        <rect x="1937.575" y="1491.259" width="23.043" height="19.32" style="fill:rgb(50,68,82);"/>
                    </g>
                    <rect x="1900.481" y="1489.011" width="102.009" height="9.66" style="fill:rgb(50,68,82);"/>
                    <g transform="matrix(-0.421053,0,-0,-1.071066,2714.586381,3092.897824)">
                        <path d="M1957.527,1502.289L1909.473,1502.289C1909.473,1494.645 1920.231,1488.449 1933.5,1488.449C1946.77,1488.449 1957.527,1494.645 1957.527,1502.289Z" style="fill:rgb(50,68,82);"/>
                    </g>
                    <g transform="matrix(-0.421053,0,-0,-1.071066,2816.595219,3092.897824)">
                        <path d="M1957.527,1502.289L1909.473,1502.289C1909.473,1494.645 1920.231,1488.449 1933.5,1488.449C1946.77,1488.449 1957.527,1494.645 1957.527,1502.289Z" style="fill:rgb(50,68,82);"/>
                    </g>
                    <g transform="matrix(1.159645,0,0,0.918934,-311.499021,114.784398)">
                        <path d="M2002.49,1421.748L2002.49,1490.516C2002.49,1492.322 2001.328,1493.788 1999.896,1493.788L1903.074,1493.788C1901.643,1493.788 1900.481,1492.322 1900.481,1490.516L1900.481,1421.748C1900.481,1419.942 1901.643,1418.476 1903.074,1418.476L1999.896,1418.476C2001.328,1418.476 2002.49,1419.942 2002.49,1421.748Z" style="fill:white;stroke:rgb(50,68,82);stroke-width:4.15px;stroke-miterlimit:1;"/>
                    </g>
                    <g transform="matrix(2.068525,0,0,2.068525,-2319.914742,-1644.582353)">
                        <circle cx="2064.95" cy="1516.509" r="1.616" style="fill:white;"/>
                    </g>
                </g>
                <g transform="matrix(0.520313,0,0,0.520313,-19.595528,-377.403291)">
                    <g transform="matrix(1,0,0,-1,71.584626,2626.613649)">
                        <path d="M610.781,1278.026L657.786,1326.002L786.293,1196.017L692.034,1194.995L610.781,1278.026Z" style="fill:rgb(25,89,154);"/>
                    </g>
                    <g transform="matrix(1,0,0,1,71.584626,71.153408)">
                        <path d="M610.781,1278.026L657.786,1326.002L786.293,1196.017L692.034,1194.995L610.781,1278.026Z" style="fill:rgb(63,182,211);fill-opacity:0.75;"/>
                    </g>
                    <path d="M610.781,1278.026L657.786,1326.002L857.878,1124.433L764.3,1124.433L610.781,1278.026Z" style="fill:rgb(63,182,211);fill-opacity:0.75;"/>
                </g>
            </g>
        </g>
        <g transform="matrix(1,0,0,1,-136.043494,-877.399006)">
            <text x="309.189px" y="1254.353px" style="font-family:'Roboto-Bold', 'Roboto';font-weight:700;font-size:41.667px;stroke:black;stroke-width:1px;stroke-linecap:butt;stroke-miterlimit:2;">(Deskt<tspan x="430.567px " y="1254.353px ">o</tspan>p, Notebook,</text>
            <g transform="matrix(41.666667,0,0,41.666667,690.709108,1303.181181)">
            </g>
            <text x="309.199px" y="1303.181px" style="font-family:'Roboto-Bold', 'Roboto';font-weight:700;font-size:41.667px;stroke:black;stroke-width:1px;stroke-linecap:butt;stroke-miterlimit:2;">T<tspan x="331.558px " y="1303.181px ">a</tspan>blet, Mobile, W<tspan x="630.04px " y="1303.181px ">e</tspan>b)</text>
        </g>
        <g transform="matrix(1,0,0,1,-137.27437,-930.562986)">
            <g transform="matrix(50,0,0,50,598.025189,1254.353056)">
            </g>
            <text x="401.883px" y="1254.353px" style="font-family:'Roboto-Bold', 'Roboto';font-weight:700;font-size:50px;">CLIEN<tspan x="538.968px " y="1254.353px ">T</tspan>E</text>
        </g>
        <g transform="matrix(1,0,0,1,-137.398475,-1049.31998)">
            <g transform="matrix(50,0,0,50,738.35722,1254.353056)">
            </g>
            <text x="261.551px" y="1254.353px" style="font-family:'Roboto-Bold', 'Roboto';font-weight:700;font-size:50px;">FRON<tspan x="389.969px " y="1254.353px ">T</tspan>END FL<tspan x="583.157px 616.067px 647.39px " y="1254.353px 1254.353px 1254.353px ">UTT</tspan>ER</text>
        </g>
    </g>
    <g>
        <g>
            <g transform="matrix(1,0,0,1,1964.035557,-607.596136)">
                <path d="M893.288,2054.011L731.99,2054.011L731.99,2122.763L594.485,1985.258L731.99,1847.754L731.99,1916.506L929.083,1916.506L903.659,1936.063L892.596,1954.167L870.469,1958.19L909.693,1985.258L947.912,1985.258L970.038,2007.471L946.906,2021.552L920.568,2029.598L893.288,2054.011Z" style="fill:rgb(172,148,207);stroke:black;stroke-width:12.5px;"/>
            </g>
            <g transform="matrix(1,0,0,1,1962.964696,875.758177)">
                <text x="759.02px" y="531.12px" style="font-family:'Roboto-Bold', 'Roboto';font-weight:700;font-size:83.333px;stroke:black;stroke-width:1px;stroke-linecap:butt;stroke-miterlimit:2;">5</text>
            </g>
        </g>
        <g>
            <g transform="matrix(1,0,0,1,1792.339124,-1451.914273)">
                <path d="M929.083,1916.506L1109.146,1916.506L1109.146,1847.754L1246.651,1985.258L1109.146,2122.763L1109.146,2054.011L893.288,2054.011L920.568,2029.598L946.906,2021.552L970.038,2007.471L947.912,1985.258L909.693,1985.258L870.469,1958.19L892.596,1954.167L903.659,1936.063L929.083,1916.506Z" style="fill:rgb(246,207,145);stroke:black;stroke-width:12.5px;"/>
            </g>
            <g transform="matrix(1,0,0,1,2067.993878,31.846941)">
                <text x="759.02px" y="531.12px" style="font-family:'Roboto-Bold', 'Roboto';font-weight:700;font-size:83.333px;stroke:black;stroke-width:1px;stroke-linecap:butt;stroke-miterlimit:2;">4</text>
            </g>
        </g>
        <g>
            <g transform="matrix(1,0,0,1,1282.934565,-607.596136)">
                <path d="M893.288,2054.011L731.99,2054.011L731.99,2122.763L594.485,1985.258L731.99,1847.754L731.99,1916.506L929.083,1916.506L903.659,1936.063L892.596,1954.167L870.469,1958.19L909.693,1985.258L947.912,1985.258L970.038,2007.471L946.906,2021.552L920.568,2029.598L893.288,2054.011Z" style="fill:rgb(246,207,145);stroke:black;stroke-width:12.5px;"/>
            </g>
            <g transform="matrix(1,0,0,1,1281.700943,876.063352)">
                <text x="759.02px" y="531.12px" style="font-family:'Roboto-Bold', 'Roboto';font-weight:700;font-size:83.333px;stroke:black;stroke-width:1px;stroke-linecap:butt;stroke-miterlimit:2;">6</text>
            </g>
        </g>
        <g>
            <g transform="matrix(1,0,0,1,1080.410608,-1451.914273)">
                <path d="M929.083,1916.506L1109.146,1916.506L1109.146,1847.754L1246.651,1985.258L1109.146,2122.763L1109.146,2054.011L893.288,2054.011L920.568,2029.598L946.906,2021.552L970.038,2007.471L947.912,1985.258L909.693,1985.258L870.469,1958.19L892.596,1954.167L903.659,1936.063L929.083,1916.506Z" style="fill:rgb(62,84,153);stroke:black;stroke-width:12.5px;"/>
            </g>
            <g transform="matrix(1,0,0,1,1356.777439,31.846941)">
                <text x="759.02px" y="531.12px" style="font-family:'Roboto-Bold', 'Roboto';font-weight:700;font-size:83.333px;fill:white;">3</text>
                <path d="M766.746,506.551C766.701,506.202 766.678,505.846 766.678,505.485L766.678,496.289C766.678,496.039 766.689,495.792 766.711,495.548L762.357,495.548C757.754,495.548 754.023,491.817 754.023,487.215C754.023,482.379 755.358,478.05 757.967,474.21C760.456,470.548 763.894,467.634 768.366,465.57C772.422,463.698 776.884,462.728 781.766,462.728C790.357,462.728 796.997,465.078 801.869,469.187C807.273,473.746 810.16,479.945 810.16,487.947C810.16,492.34 808.876,496.397 806.252,500.101C806.573,500.502 806.878,500.912 807.167,501.333C809.729,505.059 811.095,509.437 811.095,514.518C811.095,522.467 808.113,528.801 802.315,533.595C797.12,537.89 790.319,540.267 781.766,540.267C773.657,540.267 767.088,537.943 761.936,533.665C756.222,528.92 753.291,522.683 753.291,514.884C753.291,510.282 757.022,506.551 761.624,506.551L766.746,506.551ZM781.652,513.836C781.664,513.929 781.674,514.022 781.682,514.116C781.799,514.124 781.923,514.119 782.051,514.119C782.229,514.119 782.456,514.096 782.656,514.07L782.647,513.955C782.357,513.911 781.992,513.861 781.652,513.836ZM775.011,496.289L775.011,505.485L781.237,505.485C787.747,505.485 791.003,508.442 791.003,514.355C791.003,516.797 790.209,518.757 788.622,520.235C787.035,521.713 784.845,522.453 782.051,522.453C779.609,522.453 777.555,521.747 775.886,520.337C774.218,518.926 773.384,517.109 773.384,514.884L761.624,514.884C761.624,520.011 763.503,524.134 767.26,527.254C771.017,530.374 775.852,531.933 781.766,531.933C788.087,531.933 793.166,530.347 797.004,527.173C800.843,523.999 802.762,519.781 802.762,514.518C802.762,511.263 801.942,508.442 800.3,506.055C798.659,503.667 796.17,501.877 792.834,500.683C795.519,499.463 797.689,497.713 799.344,495.434C800.999,493.156 801.826,490.66 801.826,487.947C801.826,482.685 800.049,478.555 796.496,475.557C792.942,472.56 788.032,471.061 781.766,471.061C778.158,471.061 774.855,471.753 771.858,473.136C768.86,474.52 766.528,476.439 764.859,478.894C763.191,481.349 762.357,484.123 762.357,487.215L774.116,487.215C774.116,485.235 774.876,483.627 776.395,482.393C777.914,481.159 779.799,480.542 782.051,480.542C784.546,480.542 786.506,481.206 787.931,482.536C789.355,483.865 790.067,485.723 790.067,488.11C790.067,490.579 789.348,492.559 787.91,494.051C786.472,495.543 784.262,496.289 781.278,496.289L775.011,496.289Z"/>
            </g>
        </g>
        <g>
            <g transform="matrix(1,0,0,1,592.341221,-607.596136)">
                <path d="M893.288,2054.011L731.99,2054.011L731.99,2122.763L594.485,1985.258L731.99,1847.754L731.99,1916.506L929.083,1916.506L903.659,1936.063L892.596,1954.167L870.469,1958.19L909.693,1985.258L947.912,1985.258L970.038,2007.471L946.906,2021.552L920.568,2029.598L893.288,2054.011Z" style="fill:rgb(62,84,153);stroke:black;stroke-width:12.5px;"/>
            </g>
            <g transform="matrix(1,0,0,1,592.185888,876.165078)">
                <text x="759.02px" y="531.12px" style="font-family:'Roboto-Bold', 'Roboto';font-weight:700;font-size:83.333px;fill:white;">7</text>
                <path d="M810.973,481.791L788.065,534.444C786.741,537.486 783.74,539.453 780.423,539.453L768.013,539.453C765.171,539.453 762.525,538.005 760.993,535.611C759.462,533.217 759.256,530.208 760.446,527.627L777.938,489.73L761.502,489.73C756.9,489.73 753.169,485.999 753.169,481.396L753.169,471.875C753.169,467.272 756.9,463.541 761.502,463.541L803.332,463.541C807.934,463.541 811.665,467.272 811.665,471.875L811.665,478.467C811.665,479.611 811.43,480.742 810.973,481.791ZM803.332,478.467L803.332,471.875L761.502,471.875L761.502,481.396L790.962,481.396L768.013,531.12L780.423,531.12L803.332,478.467Z"/>
            </g>
        </g>
        <g>
            <g transform="matrix(1,0,0,1,399.302039,-1451.914273)">
                <path d="M929.083,1916.506L1109.146,1916.506L1109.146,1847.754L1246.651,1985.258L1109.146,2122.763L1109.146,2054.011L893.288,2054.011L920.568,2029.598L946.906,2021.552L970.038,2007.471L947.912,1985.258L909.693,1985.258L870.469,1958.19L892.596,1954.167L903.659,1936.063L929.083,1916.506Z" style="fill:rgb(97,138,75);stroke:black;stroke-width:12.5px;"/>
            </g>
            <g transform="matrix(1,0,0,1,675.099208,32.253842)">
                <text x="759.02px" y="531.12px" style="font-family:'Roboto-Bold', 'Roboto';font-weight:700;font-size:83.333px;fill:white;">2</text>
                <path d="M774.372,498.815C774.14,498.834 773.905,498.844 773.669,498.844L761.869,498.844C757.266,498.844 753.535,495.113 753.535,490.511C753.535,485.38 754.786,480.7 757.235,476.457C759.732,472.133 763.243,468.725 767.804,466.268C772.116,463.944 776.992,462.728 782.458,462.728C790.948,462.728 797.441,465.085 802.14,469.161C807.259,473.602 810.078,479.765 810.078,487.866C810.078,492.01 809.069,496.247 806.92,500.545C805.136,504.111 802.14,508.311 797.809,513.056L797.7,513.173L797.574,513.305L803.657,513.305C808.26,513.305 811.991,517.036 811.991,521.639L811.991,531.12C811.991,535.722 808.26,539.453 803.657,539.453L763.049,539.453C758.446,539.453 754.715,535.722 754.715,531.12L754.715,523.063C754.715,520.945 755.522,518.906 756.971,517.361L774.372,498.815ZM803.657,531.12L803.657,521.639L778.185,521.639L791.654,507.438C795.343,503.396 797.947,499.856 799.466,496.818C800.985,493.78 801.745,490.796 801.745,487.866C801.745,482.522 800.056,478.385 796.679,475.456C793.302,472.526 788.561,471.061 782.458,471.061C778.47,471.061 774.903,471.909 771.756,473.604C768.61,475.3 766.175,477.639 764.452,480.623C762.73,483.607 761.869,486.903 761.869,490.511L773.669,490.511C773.669,487.527 774.435,485.119 775.968,483.288C777.5,481.457 779.596,480.542 782.254,480.542C784.723,480.542 786.622,481.295 787.951,482.8C789.28,484.306 789.945,486.374 789.945,489.005C789.945,490.931 789.314,492.966 788.053,495.109C786.791,497.252 784.845,499.761 782.214,502.637L763.049,523.063L763.049,531.12L803.657,531.12Z"/>
            </g>
        </g>
        <g>
            <g transform="matrix(1,0,0,1,-98.252122,-607.596136)">
                <path d="M893.288,2054.011L731.99,2054.011L731.99,2122.763L594.485,1985.258L731.99,1847.754L731.99,1916.506L929.083,1916.506L903.659,1936.063L892.596,1954.167L870.469,1958.19L909.693,1985.258L947.912,1985.258L970.038,2007.471L946.906,2021.552L920.568,2029.598L893.288,2054.011Z" style="fill:rgb(97,138,75);stroke:black;stroke-width:12.5px;"/>
            </g>
            <g transform="matrix(1,0,0,1,-98.895737,876.165078)">
                <text x="759.02px" y="531.12px" style="font-family:'Roboto-Bold', 'Roboto';font-weight:700;font-size:83.333px;fill:white;">8</text>
                <path d="M809.997,487.622C809.997,492.204 808.796,496.251 806.506,499.795C806.416,499.933 806.326,500.07 806.234,500.205C806.588,500.649 806.928,501.105 807.252,501.574C809.871,505.353 811.258,509.774 811.258,514.884C811.258,522.854 808.382,529.077 802.959,533.698C798.032,537.897 791.419,540.267 782.946,540.267C774.485,540.267 767.859,537.898 762.902,533.686C757.435,529.041 754.552,522.818 754.552,514.884C754.552,509.786 755.934,505.363 758.546,501.571C758.868,501.103 759.205,500.648 759.555,500.207C759.457,500.061 759.36,499.914 759.265,499.765C757.002,496.229 755.814,492.192 755.814,487.622C755.814,479.946 758.532,473.896 763.649,469.336C768.394,465.107 774.754,462.728 782.905,462.728C791.004,462.728 797.345,465.076 802.101,469.259C807.245,473.784 809.997,479.854 809.997,487.622ZM801.663,487.622C801.663,482.522 799.975,478.487 796.598,475.517C793.22,472.546 788.656,471.061 782.905,471.061C777.127,471.061 772.556,472.56 769.193,475.557C765.829,478.555 764.147,482.576 764.147,487.622C764.147,490.497 764.859,493.047 766.283,495.272C767.708,497.496 769.681,499.273 772.204,500.602C769.356,501.958 767.09,503.857 765.409,506.299C763.727,508.74 762.886,511.602 762.886,514.884C762.886,520.12 764.69,524.27 768.298,527.335C771.905,530.401 776.788,531.933 782.946,531.933C789.104,531.933 793.973,530.408 797.554,527.356C801.134,524.304 802.925,520.147 802.925,514.884C802.925,511.602 802.084,508.747 800.402,506.319C798.72,503.891 796.442,501.986 793.566,500.602C796.089,499.273 798.069,497.496 799.507,495.272C800.945,493.047 801.663,490.497 801.663,487.622ZM789.904,488.192C789.904,490.552 789.3,492.45 788.093,493.888C786.886,495.326 785.17,496.045 782.946,496.045C780.722,496.045 778.999,495.326 777.778,493.888C776.558,492.45 775.947,490.552 775.947,488.192C775.947,485.804 776.558,483.933 777.778,482.576C778.999,481.22 780.708,480.542 782.905,480.542C785.13,480.542 786.852,481.24 788.073,482.637C789.294,484.034 789.904,485.886 789.904,488.192ZM781.928,488.273C782.179,488.571 782.45,488.875 782.905,488.875C783.378,488.875 783.642,488.531 783.904,488.229C783.657,487.953 783.375,487.711 782.946,487.711C782.486,487.711 782.188,487.976 781.928,488.273ZM791.125,514.03C791.125,516.661 790.399,518.723 788.948,520.215C787.497,521.707 785.496,522.453 782.946,522.453C780.342,522.453 778.307,521.68 776.842,520.133C775.378,518.587 774.645,516.553 774.645,514.03C774.645,511.426 775.391,509.357 776.883,507.825C778.375,506.292 780.369,505.526 782.865,505.526C785.387,505.526 787.395,506.299 788.887,507.845C790.379,509.391 791.125,511.453 791.125,514.03Z"/>
            </g>
        </g>
        <g>
            <g transform="matrix(1,0,0,1,-296.439752,-1451.914273)">
                <path d="M929.083,1916.506L1109.146,1916.506L1109.146,1847.754L1246.651,1985.258L1109.146,2122.763L1109.146,2054.011L893.288,2054.011L920.568,2029.598L946.906,2021.552L970.038,2007.471L947.912,1985.258L909.693,1985.258L870.469,1958.19L892.596,1954.167L903.659,1936.063L929.083,1916.506Z" style="fill:rgb(50,68,82);stroke:black;stroke-width:12.5px;"/>
            </g>
            <g transform="matrix(1,0,0,1,-16.593917,31.887631)">
                <text x="759.02px" y="531.12px" style="font-family:'Roboto-Bold', 'Roboto';font-weight:700;font-size:83.333px;fill:white;">1</text>
                <path d="M791.613,539.453L779.854,539.453C775.251,539.453 771.52,535.722 771.52,531.12L771.52,497.1L768.284,498.104C765.755,498.888 763.004,498.424 760.872,496.853C758.74,495.283 757.482,492.793 757.482,490.145L757.482,480.583C757.482,477.064 759.692,473.924 763.005,472.737L787.541,463.948C788.443,463.625 789.394,463.46 790.352,463.46L791.613,463.46C796.215,463.46 799.946,467.191 799.946,471.793L799.946,531.12C799.946,535.722 796.215,539.453 791.613,539.453ZM791.613,531.12L791.613,471.793L790.352,471.793L765.815,480.583L765.815,490.145L779.854,485.791L779.854,531.12L791.613,531.12Z"/>
            </g>
        </g>
    </g>
    <g transform="matrix(0.997664,0,0,0.949749,7.068258,88.042776)">
        <path d="M3442.485,1813.527L3442.485,2344.688C3442.485,2385.39 3411.027,2418.436 3372.279,2418.436L129.64,2418.436C90.892,2418.436 59.434,2385.39 59.434,2344.688L59.434,1813.527C59.434,1772.824 90.892,1739.779 129.64,1739.779L3372.279,1739.779C3411.027,1739.779 3442.485,1772.824 3442.485,1813.527Z" style="fill:white;stroke:black;stroke-width:12.83px;"/>
    </g>
    <g transform="matrix(1,0,0,1,1407.93376,-72.949013)">
        <text x="455.412px" y="1951.832px" style="font-family:'Roboto-Bold', 'Roboto';font-weight:700;font-size:66.667px;stroke:black;stroke-width:1px;stroke-linecap:butt;stroke-miterlimit:2;">Dados r<tspan x="684.318px 720.354px 741.903px " y="1951.832px 1951.832px 1951.832px ">eto</tspan>rnam do Banco de Dados;</text>
        <text x="455.412px" y="2085.166px" style="font-family:'Roboto-Bold', 'Roboto';font-weight:700;font-size:66.667px;stroke:black;stroke-width:1px;stroke-linecap:butt;stroke-miterlimit:2;">Back<tspan x="603.426px " y="2085.166px ">e</tspan>nd pr<tspan x="791.643px " y="2085.166px ">o</tspan>cessa e r<tspan x="1097.372px 1133.407px 1154.956px " y="2085.166px 2085.166px 2085.166px ">eto</tspan>rna a r<tspan x="1382.691px " y="2085.166px ">e</tspan>sposta par<tspan x="1733.993px " y="2085.166px ">a</tspan> a API;</text>
        <text x="455.412px" y="2218.499px" style="font-family:'Roboto-Bold', 'Roboto';font-weight:700;font-size:66.667px;stroke:black;stroke-width:1px;stroke-linecap:butt;stroke-miterlimit:2;">API r<tspan x="603.003px 639.038px 660.588px " y="2218.499px 2218.499px 2218.499px ">eto</tspan>rna a r<tspan x="888.322px " y="2218.499px ">e</tspan>sposta par<tspan x="1239.624px " y="2218.499px ">a</tspan> a aplicação;</text>
        <g transform="matrix(66.666667,0,0,66.666667,1804.696021,2351.832254)">
        </g>
        <text x="455.412px" y="2351.832px" style="font-family:'Roboto-Bold', 'Roboto';font-weight:700;font-size:66.667px;stroke:black;stroke-width:1px;stroke-linecap:butt;stroke-miterlimit:2;">A<tspan x="498.706px " y="2351.832px ">p</tspan>licação atualiza a inter<tspan x="1210.718px " y="2351.832px ">f</tspan>ace par<tspan x="1454.37px " y="2351.832px ">a</tspan> o usuário.</text>
    </g>
    <g transform="matrix(1,0,0,1,-189.77353,-69.758909)">
        <text x="455.412px" y="1951.832px" style="font-family:'Roboto-Bold', 'Roboto';font-weight:700;font-size:66.667px;stroke:black;stroke-width:1px;stroke-linecap:butt;stroke-miterlimit:2;">Usuário r<tspan x="726.604px " y="1951.832px ">e</tspan>aliza uma ação na inter<tspan x="1456.128px " y="1951.832px ">f</tspan>ace Flutter;</text>
        <text x="455.412px" y="2085.166px" style="font-family:'Roboto-Bold', 'Roboto';font-weight:700;font-size:66.667px;stroke:black;stroke-width:1px;stroke-linecap:butt;stroke-miterlimit:2;">Requisição enviada via H<tspan x="1203.654px 1245.419px " y="2085.166px 2085.166px ">TT</tspan>PS;</text>
        <text x="455.412px" y="2218.499px" style="font-family:'Roboto-Bold', 'Roboto';font-weight:700;font-size:66.667px;stroke:black;stroke-width:1px;stroke-linecap:butt;stroke-miterlimit:2;">API encaminha a r<tspan x="1001.604px " y="2218.499px ">e</tspan>quisição ao Back<tspan x="1545.093px " y="2218.499px ">e</tspan>nd;</text>
        <g transform="matrix(66.666667,0,0,66.666667,1513.680396,2351.832254)">
        </g>
        <text x="455.412px" y="2351.832px" style="font-family:'Roboto-Bold', 'Roboto';font-weight:700;font-size:66.667px;stroke:black;stroke-width:1px;stroke-linecap:butt;stroke-miterlimit:2;">Back<tspan x="603.426px " y="2351.832px ">e</tspan>nd acessa o Banco de Dados;</text>
    </g>
    <g transform="matrix(1,0,0,1,1602.206831,393.528136)">
        <circle cx="173.714" cy="1852.942" r="47.485" style="fill:rgb(97,138,75);stroke:black;stroke-width:12.5px;"/>
        <g transform="matrix(1,0,0,1,-51.936562,-62.387927)">
            <g transform="matrix(66.666667,0,0,66.666667,242.918996,1939.743631)">
            </g>
            <text x="204.67px" y="1939.744px" style="font-family:'Roboto-Bold', 'Roboto';font-weight:700;font-size:66.667px;fill:white;">8</text>
            <path d="M242.952,1904.945C242.952,1908.099 242.136,1910.888 240.559,1913.327C240.148,1913.964 239.695,1914.567 239.202,1915.136C239.939,1915.872 240.605,1916.671 241.201,1917.53C243.015,1920.149 243.961,1923.216 243.961,1926.755C243.961,1932.319 241.985,1936.678 238.2,1939.904C234.662,1942.919 229.895,1944.561 223.811,1944.561C217.733,1944.561 212.955,1942.917 209.394,1939.892C205.579,1936.65 203.596,1932.293 203.596,1926.755C203.596,1923.222 204.539,1920.152 206.35,1917.523C206.942,1916.664 207.602,1915.867 208.33,1915.135C207.835,1914.562 207.383,1913.954 206.972,1913.312C205.413,1910.877 204.605,1908.093 204.605,1904.945C204.605,1899.594 206.469,1895.362 210.036,1892.183C213.418,1889.169 217.969,1887.53 223.778,1887.53C229.553,1887.53 234.093,1889.15 237.484,1892.132C241.069,1895.286 242.952,1899.532 242.952,1904.945ZM238.785,1904.945C238.785,1900.866 237.434,1897.638 234.732,1895.261C232.03,1892.885 228.379,1891.697 223.778,1891.697C219.156,1891.697 215.499,1892.896 212.808,1895.294C210.117,1897.692 208.772,1900.909 208.772,1904.945C208.772,1907.246 209.342,1909.286 210.481,1911.065C211.62,1912.845 213.199,1914.266 215.217,1915.33C212.939,1916.415 211.126,1917.934 209.781,1919.887C208.435,1921.84 207.763,1924.129 207.763,1926.755C207.763,1930.944 209.206,1934.264 212.092,1936.716C214.978,1939.169 218.885,1940.395 223.811,1940.395C228.737,1940.395 232.633,1939.174 235.497,1936.733C238.362,1934.291 239.794,1930.965 239.794,1926.755C239.794,1924.129 239.121,1921.845 237.776,1919.903C236.43,1917.961 234.607,1916.436 232.307,1915.33C234.325,1914.266 235.909,1912.845 237.06,1911.065C238.21,1909.286 238.785,1907.246 238.785,1904.945ZM230.354,1926.072C230.354,1928.177 229.773,1929.826 228.612,1931.02C227.451,1932.213 225.851,1932.81 223.811,1932.81C221.728,1932.81 220.1,1932.192 218.928,1930.955C217.756,1929.718 217.17,1928.09 217.17,1926.072C217.17,1923.988 217.767,1922.334 218.961,1921.108C220.154,1919.881 221.749,1919.268 223.746,1919.268C225.764,1919.268 227.37,1919.887 228.564,1921.124C229.757,1922.361 230.354,1924.01 230.354,1926.072ZM226.187,1926.072C226.187,1925.231 226.052,1924.522 225.565,1924.017C225.124,1923.559 224.493,1923.435 223.746,1923.435C223.01,1923.435 222.386,1923.562 221.946,1924.014C221.461,1924.513 221.337,1925.225 221.337,1926.072C221.337,1926.892 221.477,1927.586 221.953,1928.089C222.388,1928.548 223.038,1928.643 223.811,1928.643C224.563,1928.643 225.197,1928.555 225.626,1928.114C226.095,1927.632 226.187,1926.922 226.187,1926.072ZM229.377,1905.401C229.377,1907.289 228.894,1908.808 227.929,1909.958C226.963,1911.109 225.59,1911.684 223.811,1911.684C222.031,1911.684 220.653,1911.109 219.677,1909.958C218.7,1908.808 218.212,1907.289 218.212,1905.401C218.212,1903.491 218.7,1901.994 219.677,1900.909C220.653,1899.824 222.021,1899.281 223.778,1899.281C225.558,1899.281 226.936,1899.84 227.912,1900.958C228.889,1902.075 229.377,1903.557 229.377,1905.401ZM225.211,1905.401C225.211,1904.709 225.142,1904.119 224.775,1903.699C224.55,1903.442 224.188,1903.448 223.778,1903.448C223.366,1903.448 223.003,1903.442 222.774,1903.696C222.412,1904.098 222.379,1904.694 222.379,1905.401C222.379,1906.158 222.461,1906.8 222.853,1907.262C223.069,1907.516 223.417,1907.517 223.811,1907.517C224.192,1907.517 224.531,1907.526 224.738,1907.279C225.129,1906.813 225.211,1906.166 225.211,1905.401Z"/>
        </g>
    </g>
    <g transform="matrix(1,0,0,1,1602.206831,257.215738)">
        <circle cx="173.714" cy="1852.942" r="47.485" style="fill:rgb(62,84,153);stroke:black;stroke-width:12.5px;"/>
        <g transform="matrix(1,0,0,1,-51.936562,-62.387927)">
            <g transform="matrix(66.666667,0,0,66.666667,242.918996,1939.743631)">
            </g>
            <text x="204.67px" y="1939.744px" style="font-family:'Roboto-Bold', 'Roboto';font-weight:700;font-size:66.667px;fill:rgb(255,242,242);">7</text>
            <path d="M243.94,1899.284L225.613,1941.406C224.952,1942.927 223.451,1943.91 221.793,1943.91L211.864,1943.91C210.443,1943.91 209.12,1943.186 208.355,1941.989C207.589,1940.792 207.486,1939.288 208.081,1937.998L223.712,1904.132L206.656,1904.132C204.355,1904.132 202.489,1902.266 202.489,1899.965L202.489,1892.348C202.489,1890.047 204.355,1888.181 206.656,1888.181L240.12,1888.181C242.421,1888.181 244.286,1890.047 244.286,1892.348L244.286,1897.621C244.286,1898.193 244.168,1898.759 243.94,1899.284ZM240.12,1897.621L240.12,1892.348L206.656,1892.348L206.656,1899.965L230.224,1899.965L211.864,1939.744L221.793,1939.744L240.12,1897.621Z"/>
        </g>
    </g>
    <g transform="matrix(1,0,0,1,1602.206831,118.247126)">
        <circle cx="173.714" cy="1852.942" r="47.485" style="fill:rgb(246,207,145);stroke:black;stroke-width:12.5px;"/>
        <g transform="matrix(1,0,0,1,-51.936562,-62.387927)">
            <g transform="matrix(66.666667,0,0,66.666667,242.918996,1939.743631)">
            </g>
            <text x="204.67px" y="1939.744px" style="font-family:'Roboto-Bold', 'Roboto';font-weight:700;font-size:66.667px;stroke:black;stroke-width:1px;stroke-linecap:butt;stroke-miterlimit:2;">6</text>
        </g>
    </g>
    <g transform="matrix(1,0,0,1,1602.206831,-21.551891)">
        <circle cx="173.714" cy="1852.942" r="47.485" style="fill:rgb(172,148,207);stroke:black;stroke-width:12.5px;"/>
        <g transform="matrix(1,0,0,1,-51.936562,-62.387927)">
            <g transform="matrix(66.666667,0,0,66.666667,242.918996,1939.743631)">
            </g>
            <text x="204.67px" y="1939.744px" style="font-family:'Roboto-Bold', 'Roboto';font-weight:700;font-size:66.667px;stroke:black;stroke-width:1px;stroke-linecap:butt;stroke-miterlimit:2;">5</text>
        </g>
    </g>
    <g transform="matrix(1,0,0,1,2.401207,393.528136)">
        <circle cx="173.714" cy="1852.942" r="47.485" style="fill:rgb(246,207,145);stroke:black;stroke-width:12.5px;"/>
        <g transform="matrix(1,0,0,1,-51.936562,-62.387927)">
            <g transform="matrix(66.666667,0,0,66.666667,242.918996,1939.743631)">
            </g>
            <text x="204.67px" y="1939.744px" style="font-family:'Roboto-Bold', 'Roboto';font-weight:700;font-size:66.667px;stroke:black;stroke-width:1px;stroke-linecap:butt;stroke-miterlimit:2;">4</text>
        </g>
    </g>
    <g transform="matrix(1,0,0,1,2.401207,257.215738)">
        <circle cx="173.714" cy="1852.942" r="47.485" style="fill:rgb(62,84,153);stroke:black;stroke-width:12.5px;"/>
        <g transform="matrix(1,0,0,1,-51.936562,-62.387927)">
            <g transform="matrix(66.666667,0,0,66.666667,242.918996,1939.743631)">
            </g>
            <text x="204.67px" y="1939.744px" style="font-family:'Roboto-Bold', 'Roboto';font-weight:700;font-size:66.667px;fill:white;">3</text>
            <path d="M214.989,1922.589C213.962,1921.83 213.297,1920.611 213.297,1919.236L213.297,1911.879C213.297,1910.652 213.827,1909.549 214.671,1908.787L207.34,1908.787C205.038,1908.787 203.173,1906.921 203.173,1904.62C203.173,1901.274 204.09,1898.277 205.895,1895.621C207.64,1893.053 210.059,1891.021 213.194,1889.574C216.122,1888.223 219.344,1887.53 222.867,1887.53C229.042,1887.53 233.835,1889.155 237.337,1892.109C241.105,1895.287 243.082,1899.626 243.082,1905.206C243.082,1908.261 242.165,1911.077 240.301,1913.644C239.945,1914.134 239.566,1914.602 239.165,1915.046C239.91,1915.746 240.563,1916.509 241.128,1917.331C242.901,1919.91 243.83,1922.945 243.83,1926.462C243.83,1932.016 241.763,1936.448 237.713,1939.797C233.964,1942.897 229.04,1944.561 222.867,1944.561C217.039,1944.561 212.303,1942.931 208.6,1939.857C204.616,1936.548 202.587,1932.193 202.587,1926.755C202.587,1924.454 204.452,1922.589 206.754,1922.589L214.989,1922.589ZM218.635,1923.402C219.662,1924.161 220.328,1925.381 220.328,1926.755C220.328,1927.234 220.494,1927.632 220.853,1927.936C221.455,1928.444 222.214,1928.643 223.095,1928.643C224.104,1928.643 224.939,1928.521 225.512,1927.987C225.95,1927.579 226.09,1927.007 226.09,1926.332C226.09,1925.367 226.033,1924.577 225.502,1924.094C224.835,1923.488 223.777,1923.402 222.444,1923.402L218.635,1923.402ZM219.54,1907.712L222.476,1907.712C223.483,1907.712 224.297,1907.701 224.782,1907.197C225.224,1906.739 225.341,1906.095 225.341,1905.336C225.341,1904.75 225.305,1904.249 224.956,1903.923C224.515,1903.511 223.867,1903.448 223.095,1903.448C222.348,1903.448 221.702,1903.587 221.198,1903.996C221.002,1904.155 220.914,1904.366 220.914,1904.62C220.914,1905.847 220.384,1906.95 219.54,1907.712ZM217.463,1911.879L217.463,1919.236L222.444,1919.236C227.652,1919.236 230.256,1921.601 230.256,1926.332C230.256,1928.285 229.621,1929.853 228.352,1931.036C227.082,1932.219 225.33,1932.81 223.095,1932.81C221.142,1932.81 219.498,1932.246 218.163,1931.117C216.829,1929.989 216.161,1928.535 216.161,1926.755L206.754,1926.755C206.754,1930.857 208.256,1934.156 211.262,1936.651C214.268,1939.147 218.136,1940.395 222.867,1940.395C227.923,1940.395 231.987,1939.125 235.058,1936.586C238.128,1934.047 239.664,1930.672 239.664,1926.462C239.664,1923.858 239.007,1921.601 237.694,1919.692C236.381,1917.782 234.39,1916.35 231.721,1915.395C233.87,1914.418 235.606,1913.018 236.929,1911.195C238.253,1909.373 238.915,1907.376 238.915,1905.206C238.915,1900.996 237.494,1897.692 234.651,1895.294C231.808,1892.896 227.88,1891.697 222.867,1891.697C219.981,1891.697 217.338,1892.25 214.94,1893.357C212.542,1894.464 210.676,1895.999 209.342,1897.963C208.007,1899.927 207.34,1902.146 207.34,1904.62L216.747,1904.62C216.747,1903.036 217.355,1901.75 218.57,1900.763C219.785,1899.775 221.294,1899.281 223.095,1899.281C225.091,1899.281 226.659,1899.813 227.799,1900.876C228.938,1901.94 229.508,1903.426 229.508,1905.336C229.508,1907.311 228.932,1908.895 227.782,1910.089C226.632,1911.282 224.863,1911.879 222.476,1911.879L217.463,1911.879Z"/>
        </g>
    </g>
    <g transform="matrix(1,0,0,1,2.401207,118.247126)">
        <circle cx="173.714" cy="1852.942" r="47.485" style="fill:rgb(97,138,75);stroke:black;stroke-width:12.5px;"/>
        <g transform="matrix(1,0,0,1,-51.936562,-62.387927)">
            <g transform="matrix(66.666667,0,0,66.666667,242.918996,1939.743631)">
            </g>
            <text x="204.67px" y="1939.744px" style="font-family:'Roboto-Bold', 'Roboto';font-weight:700;font-size:66.667px;fill:white;">2</text>
            <path d="M240.38,1943.91L207.893,1943.91C205.592,1943.91 203.726,1942.045 203.726,1939.744L203.726,1933.298C203.726,1932.239 204.13,1931.22 204.854,1930.447L220.176,1914.117C222.028,1912.091 223.415,1910.334 224.305,1908.821C224.883,1907.841 225.243,1906.933 225.243,1906.052C225.243,1905.134 225.155,1904.371 224.691,1903.846C224.369,1903.48 223.857,1903.448 223.258,1903.448C222.496,1903.448 221.862,1903.629 221.423,1904.153C220.772,1904.932 220.556,1905.988 220.556,1907.257C220.556,1909.558 218.69,1911.423 216.389,1911.423L206.949,1911.423C204.648,1911.423 202.782,1909.558 202.782,1907.257C202.782,1903.609 203.666,1900.28 205.407,1897.263C207.172,1894.206 209.659,1891.8 212.883,1890.063C215.983,1888.393 219.491,1887.53 223.42,1887.53C229.497,1887.53 234.165,1889.148 237.528,1892.065C241.101,1895.164 243.017,1899.487 243.017,1905.141C243.017,1908.092 242.284,1911.105 240.754,1914.166C239.406,1916.86 237.127,1920.022 233.855,1923.607L233.8,1923.666L229.697,1927.992L240.38,1927.992C242.681,1927.992 244.547,1929.858 244.547,1932.159L244.547,1939.744C244.547,1942.045 242.681,1943.91 240.38,1943.91ZM240.38,1939.744L240.38,1932.159L220.002,1932.159L230.777,1920.798C233.728,1917.565 235.812,1914.733 237.027,1912.302C238.242,1909.872 238.85,1907.485 238.85,1905.141C238.85,1900.866 237.499,1897.556 234.797,1895.212C232.095,1892.869 228.303,1891.697 223.42,1891.697C220.23,1891.697 217.376,1892.375 214.859,1893.731C212.342,1895.088 210.394,1896.959 209.016,1899.346C207.638,1901.734 206.949,1904.37 206.949,1907.257L216.389,1907.257C216.389,1904.869 217.002,1902.944 218.228,1901.479C219.454,1900.014 221.131,1899.281 223.258,1899.281C225.232,1899.281 226.751,1899.884 227.815,1901.088C228.878,1902.292 229.41,1903.947 229.41,1906.052C229.41,1907.593 228.905,1909.221 227.896,1910.935C226.887,1912.649 225.33,1914.657 223.225,1916.957L207.893,1933.298L207.893,1939.744L240.38,1939.744Z"/>
        </g>
    </g>
    <g transform="matrix(1,0,0,1,2.401207,-21.551891)">
        <circle cx="173.714" cy="1852.942" r="47.485" style="fill:rgb(50,68,82);stroke:black;stroke-width:12.5px;"/>
        <g transform="matrix(1,0,0,1,-51.936562,-62.387927)">
            <g transform="matrix(66.666667,0,0,66.666667,242.918996,1939.743631)">
            </g>
            <text x="204.67px" y="1939.744px" style="font-family:'Roboto-Bold', 'Roboto';font-weight:700;font-size:66.667px;fill:white;">1</text>
            <path d="M230.745,1943.91L221.337,1943.91C219.036,1943.91 217.17,1942.045 217.17,1939.744L217.17,1909.135L211.341,1910.943C210.076,1911.336 208.701,1911.103 207.635,1910.318C206.569,1909.533 205.94,1908.288 205.94,1906.964L205.94,1899.314C205.94,1897.554 207.045,1895.985 208.701,1895.391L228.33,1888.36C228.781,1888.199 229.256,1888.116 229.735,1888.116L230.745,1888.116C233.046,1888.116 234.911,1889.982 234.911,1892.283L234.911,1939.744C234.911,1942.045 233.046,1943.91 230.745,1943.91ZM230.745,1939.744L230.745,1892.283L229.735,1892.283L210.106,1899.314L210.106,1906.964L221.337,1903.481L221.337,1939.744L230.745,1939.744Z"/>
        </g>
    </g>
</svg>
